PathFileType	4	(X/Y/Z)	C:\Users\°ÂÌØÂü\Desktop\20210112\bx_n_5_902-Unnamed.trc
DataRate	CameraRate	NumFrames	NumMarkers	Units	OrigDataRate	OrigDataStartFrame	OrigNumFrames
50.00	50.00	       4	0	mm	50.00	477	       545
Frame#	Time	
		

477	9.520	-712.21167	152.47739	215.95222	-719.70874	68.21866	217.17105	-661.20532	274.40768	873.81250	-564.27557	-10.65458	800.45380	-573.38562	230.29762	1064.56213	-674.60242	262.01068	744.59662	-709.36346	243.87981	644.04639	-567.15021	214.70248	789.05884	-714.63745	242.03389	577.26868	-655.87219	7.53120	518.40582	-663.21033	201.08727	533.21051	-757.56396	252.52402	505.21014	-793.83557	36.99273	174.68347	-684.07129	65.03027	575.48328	-648.47821	-68.37603	161.11943	-769.54639	82.61853	1050.26489	-767.30695	226.86877	206.40611	-605.52234	-73.26656	158.22632	-882.62708	296.25787	144.73608	-676.29968	138.76195	574.13867	-599.87128	27.74391	167.33513	-547.48523	-23.78633	163.61475	-517.62207	-72.77718	143.38007	-675.14484	171.71741	157.67993	-591.41309	217.52911	173.18777	-623.66144	305.94659	159.06508	-528.12799	304.54727	146.78020	-727.73792	100.34788	1843.67212	-698.96466	278.68890	1531.68640	-631.70294	-84.26652	870.36542	-795.95917	178.54636	184.32614	-555.10297	254.87828	164.57237	-659.70117	297.51593	158.24734	-583.59637	91.79465	1357.63306				-748.22070	-53.55769	489.29785	-758.29376	-22.19579	207.10799	-875.85522	-78.73365	141.22168	-699.89294	-81.76321	1535.36475	-659.36365	-70.62440	756.94360	-691.74115	-44.87144	617.85278	-702.42871	-41.70247	568.14001	-674.88397	52.51780	160.26122	-565.37994	-18.66447	1052.50122	
478	9.540	-712.24438	152.57411	216.10460	-719.69501	68.10095	217.34692	-661.22107	274.63486	873.86304	-564.49670	-10.66460	800.53345	-573.76056	230.15645	1064.22742	-674.82556	261.78308	744.37378	-709.39478	244.05212	643.96985	-567.16425	214.84898	789.43732	-714.67004	242.16896	577.48218	-656.04669	7.50764	518.47870	-663.21942	201.17973	533.32703	-757.70624	252.55772	505.22937	-793.82806	36.84401	174.52888	-684.07129	65.03027	575.48328	-648.33105	-68.38952	161.01132	-769.74463	82.51210	1050.25183	-767.22839	226.93649	206.54730	-605.17651	-73.23318	157.98114	-882.63971	296.22083	144.79468	-676.34210	138.82843	573.91949	-599.84473	27.54531	167.57646	-547.62622	-23.64940	163.60555	-517.53406	-72.83929	143.35529	-675.14484	171.71741	157.67993	-591.40479	217.49699	173.16525	-623.54169	305.82419	159.15350	-528.11969	304.63617	146.75458	-727.76318	100.57214	1843.77844	-699.33075	278.66418	1531.80139	-632.04559	-84.21494	870.35010	-795.88098	178.61636	184.37224	-555.23029	254.95660	164.57855	-659.65558	297.38309	158.29684	-584.15137	91.72803	1357.59692				-748.20093	-53.67385	489.20956	-758.22339	-22.03091	207.03156	-875.85034	-78.68372	141.27127	-700.22064	-81.84922	1535.43506	-659.49591	-70.68536	756.93494	-691.83685	-45.12374	617.96503	-702.41180	-41.72468	568.57843	-674.88397	52.51780	160.26122	-565.61975	-18.66793	1052.56641	
479	9.560	-712.36365	152.46565	215.98822	-719.70599	68.04485	217.12614	-661.22107	274.63486	873.86304	-564.81329	-10.56766	800.54492	-573.92664	230.28664	1064.50220	-674.82556	261.78308	744.37378	-709.46967	244.12117	644.18066	-567.64746	214.70639	789.44897	-714.67407	242.00667	577.28412	-656.13080	7.62808	518.70679	-663.21942	201.17973	533.32703	-757.58221	252.61476	505.09155	-793.84760	36.95108	174.68968	-684.07129	65.03027	575.48328	-648.42621	-68.41458	161.10837	-769.87927	82.42701	1050.26709	-767.39771	226.93254	206.44890	-605.32593	-73.20353	157.84254	-882.53522	296.16849	144.69659	-676.33484	138.90079	573.97137	-599.98761	27.85675	167.43739	-547.50055	-23.69527	163.65392	-517.65692	-72.66559	143.24995	-675.14484	171.71741	157.67993	-591.34918	217.44930	173.25714	-623.53833	305.82172	159.23201	-528.03589	304.71042	146.77905	-727.82635	100.69428	1843.82410	-699.84607	278.65106	1531.75037	-632.28528	-84.42863	870.55640	-795.92731	178.61603	184.31126	-555.17499	254.91624	164.61403	-659.63855	297.47842	158.40332	-584.57764	91.73024	1357.74585				-748.16699	-53.70232	489.25406	-758.47235	-22.21416	207.12537	-875.85034	-78.68372	141.27127	-700.82941	-81.73718	1535.32507	-659.72351	-70.45139	756.68591	-692.04498	-44.90927	617.72595	-702.75134	-41.70882	568.30603	-674.88397	52.51780	160.26122	-565.85516	-18.77058	1052.58875	
480	9.580	-712.54834	152.67676	215.86316	-719.83740	68.02860	217.19672	-661.45825	274.48157	873.91962	-565.05823	-10.60921	800.56805	-574.18750	230.55553	1064.49658	-675.04688	261.60007	744.23907	-709.49323	244.13795	643.91071	-567.83215	214.68933	789.44873	-714.93329	242.03395	577.15314	-656.34924	7.37002	518.81055	-663.29865	201.29185	533.27802	-757.70624	252.55772	505.22937	-793.92743	36.81836	174.80074	-684.06641	64.91930	575.55090	-648.40179	-68.37696	161.08344	-769.95703	82.58554	1050.19861	-767.29291	227.00244	206.45767	-605.28607	-73.27168	157.87389	-882.62378	296.22037	144.70464	-676.81525	139.01016	574.05139	-599.87128	27.74391	167.33513	-547.45917	-23.75069	163.56076	-517.69623	-72.65070	143.30420	-675.26709	171.75514	157.53410	-591.42590	217.64348	173.07112	-623.63092	306.07983	159.00485	-528.20087	304.78625	146.78091	-728.02173	100.78196	1843.72168	-700.40167	278.27036	1531.63293	-632.44360	-84.40574	870.57935	-795.98291	178.69078	184.37041	-555.05078	254.85138	164.63126	-659.61981	297.60770	158.32077	-584.81409	91.97131	1357.69336				-748.37262	-53.77362	489.23636	-758.24878	-22.03969	206.92152	-875.85522	-78.73365	141.22168	-701.28973	-81.67271	1535.39343	-660.16595	-70.63607	756.74359	-692.06470	-45.15312	617.80939	-702.88611	-41.64236	568.17078	-674.88397	52.51780	160.26122	-566.02356	-18.61244	1052.59180	
